<?xml version="1.0" standalone="no"?>
<!DOCTYPE svg PUBLIC "-//W3C//DTD SVG 20010904//EN"
 "http://www.w3.org/TR/2001/REC-SVG-20010904/DTD/svg10.dtd">
<svg version="1.0" xmlns="http://www.w3.org/2000/svg"
 width="512.000000pt" height="512.000000pt" viewBox="0 0 512.000000 512.000000"
 preserveAspectRatio="xMidYMid meet">
<metadata>
Created by potrace 1.11, written by Peter Selinger 2001-2013
</metadata>
<g transform="translate(0.000000,512.000000) scale(0.100000,-0.100000)"
fill="#000000" stroke="none">
<path d="M3739 5106 c-88 -30 -145 -83 -184 -169 -26 -56 -27 -65 -28 -250
l-1 -192 -1576 -5 -1575 -5 -57 -22 c-156 -59 -274 -195 -307 -351 -8 -39 -11
-461 -11 -1471 0 -1345 1 -1419 19 -1477 48 -158 164 -276 321 -325 63 -20 89
-20 767 -21 l701 0 -17 -32 c-10 -17 -54 -101 -99 -186 l-82 -155 -79 -2 c-57
-1 -90 -7 -119 -22 -89 -45 -139 -159 -112 -255 16 -59 82 -127 138 -144 56
-17 2194 -17 2243 0 137 47 191 217 105 331 -45 60 -108 89 -200 90 -57 1 -76
5 -84 18 -6 9 -40 74 -76 143 -37 70 -72 137 -80 149 -8 12 -17 32 -20 43 l-7
21 695 1 c620 0 701 2 753 17 182 53 312 195 343 375 8 46 10 587 8 1875 l-3
1810 -23 48 c-29 61 -91 123 -151 151 -43 20 -64 21 -326 24 -154 1 -285 -1
-290 -5 -6 -5 -20 -21 -32 -38 -20 -28 -25 -30 -92 -31 -61 0 -71 2 -71 17 0
10 -12 27 -27 39 -25 19 -38 21 -177 19 -91 0 -165 -6 -187 -13z"/>
</g>
</svg>
